<svg width="169" height="178" viewBox="0 0 169 178" fill="none" xmlns="http://www.w3.org/2000/svg">
<path d="M149.31 62.71C149.23 62.71 149.15 62.73 149.07 62.73C150.61 59.16 151.48 55.23 151.48 51.1C151.48 34.89 138.34 21.75 122.13 21.75C116.4 21.75 111.07 23.42 106.56 26.25C100.45 11.4 85.85 0.940002 68.8 0.940002C46.25 0.940002 27.97 19.22 27.97 41.77C27.97 43.47 28.11 45.14 28.31 46.79C28.2 46.79 28.08 46.77 27.97 46.77C12.85 46.77 0.589966 59.03 0.589966 74.15C0.589966 89.27 12.85 101.53 27.97 101.53H149.32C160.04 101.53 168.74 92.84 168.74 82.12C168.74 71.4 160.05 62.7 149.32 62.7L149.31 62.71Z" fill="#B9D7FF"/>
<path d="M75.5 113.27L64.99 145.28H79.48L70.09 177.77L104.32 131.9H86.65L93.34 113.27H75.5Z" fill="#FFDC7B"/>
</svg>
